<?xml version="1.0" encoding="UTF-8" standalone="no"?>
<!DOCTYPE svg PUBLIC "-//W3C//DTD SVG 1.1//EN" "http://www.w3.org/Graphics/SVG/1.1/DTD/svg11.dtd">
<svg width="100%" height="100%" viewBox="0 0 2150 2150" version="1.1" xmlns="http://www.w3.org/2000/svg" xmlns:xlink="http://www.w3.org/1999/xlink" xml:space="preserve" xmlns:serif="http://www.serif.com/" style="fill-rule:evenodd;clip-rule:evenodd;stroke-linejoin:round;stroke-miterlimit:2;">
    <g id="Background" transform="matrix(2.064453,0,0,2.064453,18,194)">
        <path d="M248.001,274.016C300.062,217.607 406.103,176.713 511.414,229.674C559.708,253.96 590.788,295.596 591.034,299.52C591.177,301.813 591.177,604.942 591.177,631.5C591.177,657.195 591.864,659.038 588.494,659.075C584.402,659.119 539.301,659.609 537.343,658.818C534.943,657.847 536.885,611.726 536.251,610.604C534.737,607.926 534.235,610.445 530.221,613.053C438.206,672.831 322.531,649.938 259.862,591.095C145.429,483.651 183.103,338.264 248.001,274.016L279.999,548.018C368.09,636.312 482.226,605.519 534.487,552.487C536.525,550.419 536.256,549.965 536.256,487.5C536.256,303.228 536.383,302.928 535.226,301.733C452.035,215.82 286.735,236.875 240.321,371.44C232.067,395.369 226.623,434.511 237.958,474.364C249.64,515.434 272.362,539.755 279.999,548.018L248.001,274.016Z" style="fill-opacity:0.99;"/>
        <path d="M127.012,126.008C301.326,-45.183 564.344,-32.492 724.063,117.966C752.645,144.891 774.528,174.529 775.235,175.596C776.259,177.142 770.897,177.08 770.5,177.076C770.425,177.075 694.598,177.077 694.502,177.074C690.588,176.973 687.83,173.193 683.769,169.226C550.008,38.572 335.662,30.281 192.105,154.039C6.819,313.772 33.415,597.119 226.786,726.069C381.608,829.314 573.231,792.791 681.521,686.522C688.976,679.206 688.016,676.339 698.5,676.337C774.727,676.324 774.827,676.354 775.111,676.779C776.042,678.171 757.603,699.97 755.971,701.899C644.534,833.639 460.351,884.138 298.452,831.644C-7.14,732.559 -98.771,350.656 127.012,126.008Z" style="fill-opacity:1;"/>
        <path d="M963.809,462.995C941.145,477.148 689.459,632.318 683.723,635.864C681.281,637.375 679.759,638.368 679.776,635.484C679.903,614.698 679.75,216.857 679.852,216.644C680.551,215.194 681.268,216.501 760.724,265.135C890.606,344.634 889.968,345.558 1019.838,425.004C1023.934,427.51 1018.035,429.539 1012.715,432.846C1011.558,433.565 1011.583,433.547 963.809,462.995L897.189,402.995C745.098,309.031 744.95,309.299 731.793,301.02C729.48,299.565 727.166,297.809 727.188,302.498C727.239,313.41 727.111,553.201 727.253,553.63C727.91,555.62 728.955,554.183 750.275,541.135C765.039,532.1 933.027,429.291 934.33,427.387C935.433,425.773 933.735,425.92 897.189,402.995L963.809,462.995Z" style="fill-opacity:1;"/>
        <path d="M353.003,468.957C349.938,465.622 330.572,444.548 337.498,414.5C352.366,349.997 437.369,349.135 458.087,404.648C481.368,467.031 402.299,519.939 353.003,468.957Z" style="fill-opacity:1;"/>
    </g>
</svg>
